# xmcd
#
# Track frame offsets: 
#        150
#        20245
#        34873
#        57213
#        75398
#        103479
#        127102
#        146973
#        163417
#        178031
#        205681
#
# Disc length: 2969 seconds
#
# Revision: 0
# Processed by: cddbd v1.5.1PL0 Copyright (c) Steve Scherf et al.
# Submitted via: ExactAudioCopy v0.95a5
#
DISCID=a60b970b
DTITLE=Les Chalimon and Friends - Chicago, New York Blues Session 2003
DYEAR=2003
DGENRE=Chicago Blues
TTITLE0=Bad Boy
TTITLE1=Trouble No More
TTITLE2=Cloudy Day
TTITLE3=Talk To Me Baby
TTITLE4=Cold, Cold Feeling
TTITLE5=Come Back Baby
TTITLE6=Love You Baby
TTITLE7=Black Out (Jam)
TTITLE8=Key To The Highway
TTITLE9=Little Boy Blue
TTITLE10=No Escape From The Blues
EXTD=
EXTT0=
EXTT1=
EXTT2=
EXTT3=
EXTT4=
EXTT5=
EXTT6=
EXTT7=
EXTT8=
EXTT9=
EXTT10=
PLAYORDER=
